<svg width="39" height="48" viewBox="0 0 39 48" fill="none" xmlns="http://www.w3.org/2000/svg">
<path d="M9.34487 18.7144L17.3506 0.275391H20.0364V5.49203L14.3549 18.7144H18.5902V16.3385C18.5902 15.76 19.5543 15.7187 20.0364 15.7704V23.053C18.7142 23.053 18.5213 22.6054 18.5902 22.3816V20.3156H13.5802L1.18418 47.9999H0.71933L3.86998 38.4447C3.86998 38.4447 1.08088 37.36 2.01058 35.0358C2.94028 32.7115 8.51847 20.3156 8.51847 20.3156H2.01058V18.7144H9.34487Z" fill="#FF9900"/>
<path d="M30.2114 18.7144L22.2057 0.275391H19.5199V5.49203L25.2014 18.7144H20.9661V16.3385C20.9661 15.76 20.002 15.7187 19.5199 15.7704V23.053C20.8421 23.053 21.035 22.6054 20.9661 22.3816V20.3156H25.9761L38.3721 47.9999H38.837L35.6863 38.4447C35.6863 38.4447 38.4754 37.36 37.5457 35.0358C36.616 32.7115 31.0378 20.3156 31.0378 20.3156H37.5457V18.7144H30.2114Z" fill="#FF9900"/>
</svg>
