<svg width="18" height="25" viewBox="0 0 18 25" fill="none" xmlns="http://www.w3.org/2000/svg">
<path fill-rule="evenodd" clip-rule="evenodd" d="M8.82984 21.5897C11.8535 21.5897 14.3047 19.1385 14.3047 16.1148C14.3047 13.0911 11.8535 10.6399 8.82984 10.6399C5.80614 10.6399 3.35495 13.0911 3.35495 16.1148C3.35495 19.1385 5.80614 21.5897 8.82984 21.5897ZM8.82984 24.5854C13.508 24.5854 17.3004 20.793 17.3004 16.1148C17.3004 11.4366 13.508 7.64419 8.82984 7.64419C4.15166 7.64419 0.359253 11.4366 0.359253 16.1148C0.359253 20.793 4.15166 24.5854 8.82984 24.5854Z" fill="white"/>
<path d="M7.28034 0H10.3793V8.16069H7.28034V0Z" fill="white"/>
</svg>
